<svg width="53" height="39" viewBox="0 0 53 39" fill="none" xmlns="http://www.w3.org/2000/svg">
<path d="M41.2612 25.8246C38.0811 29.3048 34.5034 31.8029 31.2984 33.0342C28.0799 34.2706 25.3052 34.2082 23.6478 32.6937C21.9904 31.1792 21.6787 28.4213 22.6207 25.1047C23.5587 21.8019 25.725 18.0142 28.9052 14.5339C32.0853 11.0537 35.663 8.55554 38.868 7.32429C42.0865 6.08789 44.8612 6.15027 46.5186 7.66479C48.176 9.17931 48.4877 11.9371 47.5457 15.2537C46.6077 18.5565 44.4414 22.3443 41.2612 25.8246Z" fill="#FF97B2" stroke="black" stroke-width="0.429171"/>
<path d="M24.0945 14.5343C20.9143 11.0541 17.3367 8.55594 14.1316 7.32469C10.9132 6.0883 8.1385 6.15067 6.48107 7.66519C4.82363 9.17971 4.51199 11.9375 5.45395 15.2541C6.39198 18.5569 8.55826 22.3447 11.7384 25.825C14.9186 29.3052 18.4962 31.8033 21.7013 33.0346C24.9197 34.271 27.6944 34.2086 29.3518 32.6941C31.0093 31.1796 31.3209 28.4217 30.379 25.1051C29.4409 21.8023 27.2746 18.0146 24.0945 14.5343Z" fill="#D2BFFF" stroke="black" stroke-width="0.429171"/>
<path d="M34.9774 17.1669C34.9774 21.8813 34.0215 26.1388 32.486 29.2097C30.9442 32.2935 28.8538 34.1191 26.6086 34.1191C24.3634 34.1191 22.273 32.2935 20.7311 29.2097C19.1956 26.1388 18.2397 21.8813 18.2397 17.1669C18.2397 12.4525 19.1956 8.19497 20.7311 5.12402C22.273 2.04024 24.3634 0.214586 26.6086 0.214586C28.8538 0.214586 30.9442 2.04024 32.486 5.12402C34.0215 8.19497 34.9774 12.4525 34.9774 17.1669Z" fill="#FF9E61" stroke="black" stroke-width="0.429171"/>
</svg>
